# xmcd
#
# Track frame offsets: 
#        150
#        12519
#        28886
#        41003
#        60707
#        88107
#        105126
#        124688
#        147979
#        167610
#
# Disc length: 2652 seconds
#
# Revision: 3
# Processed by: cddbd v1.5.2PL0 Copyright (c) Steve Scherf et al.
# Submitted via: ExactAudioCopy v1.1
#
DISCID=800a5a0a
DTITLE=Melissa Etheridge - A New Thought For Christmas
DYEAR=2008
DGENRE=Rock
TTITLE0=Blue Christmas
TTITLE1=Glorious
TTITLE2=Christmas (Baby Please Come Home)
TTITLE3=Have Yourself A Merry Little Christmas
TTITLE4=Ring The Bells
TTITLE5=Merry Christmas Baby
TTITLE6=Christmas In America
TTITLE7=Light A Light
TTITLE8=It's Christmas Time
TTITLE9=O Night Divine
EXTD=
EXTT0=
EXTT1=
EXTT2=
EXTT3=
EXTT4=
EXTT5=
EXTT6=
EXTT7=
EXTT8=
EXTT9=
PLAYORDER=
